<?xml version="1.0" encoding="utf-8"?>
<!-- Generator: Adobe Illustrator 27.8.0, SVG Export Plug-In . SVG Version: 6.00 Build 0)  -->
<svg version="1.1" id="Layer_1" xmlns="http://www.w3.org/2000/svg" xmlns:xlink="http://www.w3.org/1999/xlink" x="0px" y="0px"
	 viewBox="0 0 483 130" style="enable-background:new 0 0 483 130;" xml:space="preserve">
<style type="text/css">
	.st0{fill:#E8E9EA;}
</style>
<g>
	<path class="st0" d="M0.4,116.7L67,20v-0.6H6.3V-0.3h91.5v13.9l-65.7,95.8v0.8h66.6v19.7H0.4V116.7z"/>
	<path class="st0" d="M145.7-0.3v130.2h-23.8V-0.3H145.7z"/>
	<path class="st0" d="M404.4,93l-11.2,36.9h-24.5L410.4-0.3h30.3L483,129.9h-25.5L445.7,93H404.4z M441.7,75l-10.3-32
		c-2.5-7.9-4.6-16.8-6.6-24.3h-0.4c-1.9,7.5-3.9,16.6-6.2,24.3l-10,32.1L441.7,75L441.7,75z"/>
	<path class="st0" d="M156.1,129.9c20.5-43.3,41-86.6,61.6-129.8c28.7,43.3,57.5,86.6,86.2,129.8
		C254.7,129.9,205.4,129.9,156.1,129.9z"/>
	<path class="st0" d="M265.3,58.2c15.7,23.9,31.3,47.8,47,71.6c16,0,32.1,0,48.1,0c-18.7-33.6-37.3-67.2-56-100.7
		C291.4,38.8,278.3,48.5,265.3,58.2z"/>
</g>
</svg>
