<?xml version="1.0" encoding="utf-8"?>
<!-- Generator: Adobe Illustrator 27.5.0, SVG Export Plug-In . SVG Version: 6.00 Build 0)  -->
<svg version="1.1" id="Layer_1" xmlns="http://www.w3.org/2000/svg" xmlns:xlink="http://www.w3.org/1999/xlink" x="0px" y="0px"
	 viewBox="0 0 483 130" style="enable-background:new 0 0 483 130;" xml:space="preserve">
<style type="text/css">
	.st0{fill:url(#SVGID_1_);}
	.st1{fill:url(#SVGID_00000074429473775665758180000018387425390837260206_);}
	.st2{fill:url(#SVGID_00000129176801496004463580000017648970385228931468_);}
	.st3{fill:url(#SVGID_00000065039259550454158180000016872787307823588229_);}
	.st4{fill:url(#SVGID_00000012430504302846238320000001193621645461597593_);}
</style>
<g>
	<linearGradient id="SVGID_1_" gradientUnits="userSpaceOnUse" x1="0.3599" y1="64.7995" x2="98.8467" y2="64.7995">
		<stop  offset="0" style="stop-color:#005783"/>
		<stop  offset="1" style="stop-color:#0096D0"/>
	</linearGradient>
	<path class="st0" d="M0.4,116.7L67,20v-0.6H6.3V-0.3h91.5v13.9l-65.7,95.8v0.8h66.6v19.7H0.4V116.7z"/>
	
		<linearGradient id="SVGID_00000093876683773219427280000000477315278035926964_" gradientUnits="userSpaceOnUse" x1="121.9104" y1="64.7995" x2="145.6618" y2="64.7995">
		<stop  offset="0" style="stop-color:#005783"/>
		<stop  offset="1" style="stop-color:#0096D0"/>
	</linearGradient>
	<path style="fill:url(#SVGID_00000093876683773219427280000000477315278035926964_);" d="M145.7-0.3v130.2h-23.8V-0.3H145.7z"/>
	
		<linearGradient id="SVGID_00000169537179310216852620000005609640892850555028_" gradientUnits="userSpaceOnUse" x1="368.6779" y1="64.7995" x2="483" y2="64.7995">
		<stop  offset="0" style="stop-color:#005783"/>
		<stop  offset="1" style="stop-color:#0096D0"/>
	</linearGradient>
	<path style="fill:url(#SVGID_00000169537179310216852620000005609640892850555028_);" d="M404.4,93l-11.2,36.9h-24.5L410.4-0.3
		h30.3L483,129.9h-25.5L445.7,93H404.4z M441.7,75L431.4,43c-2.5-7.9-4.6-16.8-6.6-24.3h-0.4c-1.9,7.5-3.9,16.6-6.2,24.3l-10,32.1
		H441.7z"/>
	
		<linearGradient id="SVGID_00000008835403783756766260000003201751547027711654_" gradientUnits="userSpaceOnUse" x1="156.1475" y1="64.9555" x2="303.9027" y2="64.9555">
		<stop  offset="0" style="stop-color:#005783"/>
		<stop  offset="1" style="stop-color:#0096D0"/>
	</linearGradient>
	<path style="fill:url(#SVGID_00000008835403783756766260000003201751547027711654_);" d="M156.1,129.9
		c20.5-43.3,41-86.6,61.6-129.8c28.7,43.3,57.5,86.6,86.2,129.8C254.7,129.9,205.4,129.9,156.1,129.9z"/>
	
		<linearGradient id="SVGID_00000078027226177667350270000000145544339152495515_" gradientUnits="userSpaceOnUse" x1="265.2849" y1="79.5072" x2="360.4303" y2="79.5072">
		<stop  offset="0" style="stop-color:#005783"/>
		<stop  offset="1" style="stop-color:#0096D0"/>
	</linearGradient>
	<path style="fill:url(#SVGID_00000078027226177667350270000000145544339152495515_);" d="M265.3,58.2c15.7,23.9,31.3,47.8,47,71.6
		c16,0,32.1,0,48.1,0c-18.7-33.6-37.3-67.2-56-100.7C291.4,38.8,278.3,48.5,265.3,58.2z"/>
</g>
</svg>
